<?xml version="1.0" standalone="no"?>
<!DOCTYPE svg PUBLIC "-//W3C//DTD SVG 20010904//EN"
 "http://www.w3.org/TR/2001/REC-SVG-20010904/DTD/svg10.dtd">
<svg version="1.0" xmlns="http://www.w3.org/2000/svg"
 width="256.000000pt" height="256.000000pt" viewBox="0 0 256.000000 256.000000"
 preserveAspectRatio="xMidYMid meet">

<g transform="translate(0.000000,256.000000) scale(0.100000,-0.100000)"
fill="#000000" stroke="none">
<path d="M518 2374 c-2 -2 -50 -4 -106 -5 -95 -2 -103 -4 -108 -23 -3 -12 -4
-352 -2 -756 l3 -735 32 -85 c102 -273 274 -459 536 -580 144 -66 237 -84 427
-84 137 0 179 4 245 21 292 79 512 252 643 505 20 40 45 98 55 128 46 150 47
157 47 614 0 256 -4 436 -9 436 -8 0 -19 79 -21 147 0 12 -5 25 -10 28 -6 3
-10 14 -10 23 0 9 -7 30 -15 46 -8 15 -15 41 -15 57 0 26 -3 28 -42 31 -42 3
-43 4 -41 38 l2 35 -74 3 c-68 2 -74 1 -68 -15 4 -10 11 -21 17 -25 8 -5 7 -8
-1 -8 -6 0 -9 -9 -6 -22 4 -22 4 -22 -10 -5 -12 14 -23 17 -51 12 -30 -6 -36
-4 -36 10 0 14 -6 16 -34 11 -36 -7 -78 5 -102 29 -9 8 -22 15 -29 15 -7 0
-16 10 -18 23 l-4 22 -2 -22 c-1 -24 -10 -27 -48 -17 -18 5 -23 13 -23 42 0
60 -7 31 -14 -56 -3 -45 -3 -94 0 -108 6 -24 10 -26 43 -20 20 3 37 10 39 16
8 24 191 -2 200 -28 2 -7 8 -12 14 -12 36 0 73 -103 64 -182 -7 -66 -17 -90
-54 -130 -26 -28 -85 -54 -101 -44 -5 3 -12 32 -15 63 -9 78 -15 95 -30 90
-13 -5 -46 25 -46 42 0 21 -59 31 -191 31 -109 0 -139 -3 -133 -12 5 -10 4
-10 -6 -1 -9 8 -21 7 -49 -4 -46 -19 -71 -42 -96 -90 -11 -21 -23 -40 -26 -43
-11 -9 -89 -152 -95 -174 -3 -13 4 -35 18 -56 20 -29 31 -36 64 -38 50 -4 66
13 125 126 58 114 71 122 178 122 90 0 114 -9 103 -39 -3 -9 -44 -79 -90 -156
-47 -77 -130 -216 -185 -310 -54 -93 -105 -173 -111 -177 -6 -4 -70 -8 -143
-8 -121 0 -133 2 -143 19 -6 13 -11 215 -12 578 0 307 -4 538 -7 513 -6 -42
-7 -39 -12 34 -6 78 -17 100 -46 89 -8 -3 -13 -2 -12 3 6 25 -15 44 -47 44
-33 0 -47 -14 -21 -23 6 -2 -1 -2 -18 1 -16 2 -33 9 -36 15 -4 5 -16 7 -28 4
-12 -3 -23 -2 -26 3 -3 4 -24 5 -47 3 -24 -3 -56 1 -73 8 -35 14 -52 18 -57
13z m1245 -1124 c37 -32 329 -440 360 -502 34 -68 -2 -151 -73 -167 -61 -13
-96 4 -143 68 -23 32 -96 133 -162 225 l-120 167 -6 -89 c-9 -139 -60 -217
-177 -269 -47 -22 -72 -26 -147 -26 -81 0 -96 3 -150 31 -78 40 -165 132 -165
176 0 23 24 26 190 26 154 0 159 1 188 24 16 14 53 65 82 113 141 234 159 253
242 253 38 0 54 -6 81 -30z"/>
<path d="M891 2334 c0 -11 3 -14 6 -6 3 7 2 16 -1 19 -3 4 -6 -2 -5 -13z"/>
</g>
</svg>
